Coordinates
version=1
nRows=4
nColumns=107
inDegrees=yes

Units are S.I. units (second, meters, Newtons, ...)
If the header above contains a line with 'inDegrees', this indicates whether rotational values are in degrees (yes) or radians (no).

endheader
time	sternoclavicular_r2	sternoclavicular_r3	unrotscap_r3	unrotscap_r2	acromioclavicular_r2	acromioclavicular_r3	acromioclavicular_r1	unrothum_r1	unrothum_r3	unrothum_r2	elv_angle	shoulder_elv	shoulder1_r2	shoulder_rot	elbow_flexion	pro_sup	deviation	flexion	proximal_distal_r1	proximal_distal_r3	cmc_flexion	cmc_abduction	mp_flexion	ip_flexion	mcp2_flexion	mcp2_abduction	pm2_flexion	md2_flexion	mcp3_flexion	mcp3_abduction	pm3_flexion	md3_flexion	mcp4_flexion	mcp4_abduction	pm4_flexion	md4_flexion	mcp5_flexion	mcp5_abduction	pm5_flexion	md5_flexion	bicpt_tx	bicpt_ty	bicpt_tz	bicpt2_tx	bicpt2_ty	bicpt2_tz	ptpt_tx	ptpt_ty	ptpt_tz	FCUpt_tx	FCUpt_ty	FCUpt_tz	EDCpt_tx	EDCpt_ty	EDCpt_tz	APLpt_tx	APLpt_ty	APLpt_tz	FPLpt_tx	FPLpt_ty	FPLpt_tz	FPLpt2_tx	FPLpt2_ty	FPLpt2_tz	PEC1pt2_tx	PEC1pt2_ty	PEC1pt2_tz	PEC1pt3_tx	PEC1pt3_ty	PEC1pt3_tz	PEC2pt2_tx	PEC2pt2_ty	PEC2pt2_tz	PEC2pt3_tx	PEC2pt3_ty	PEC2pt3_tz	PEC3pt2_tx	PEC3pt2_ty	PEC3pt2_tz	PEC3pt3_tx	PEC3pt3_ty	PEC3pt3_tz	DELT2pt2a_tx	DELT2pt2a_ty	DELT2pt2a_tz	DELT2pt2_tx	DELT2pt2_ty	DELT2pt2_tz	LAT1pt2_tx	LAT1pt2_ty	LAT1pt2_tz	LAT1pt3_tx	LAT1pt3_ty	LAT1pt3_tz	LAT2pt2_tx	LAT2pt2_ty	LAT2pt2_tz	LAT2pt3_tx	LAT2pt3_ty	LAT2pt3_tz	LAT3pt2_tx	LAT3pt2_ty	LAT3pt2_tz	LAT3pt3_tx	LAT3pt3_ty	LAT3pt3_tz
      0.00000000	     -0.31330296	      0.13270035	     -0.13270035	      0.31330296	     -0.06343748	      0.51267936	      0.23044585	     -0.23044585	     -0.51267936	      0.06343748	    101.76971594	     74.17725982	     -1.77621662	    -38.15340872	     31.42548247	     84.00858999	      0.32143862	     -0.61901225	      0.35166783	     -0.30950612	     32.20825260	    -23.73518024	     -6.48660168	     -0.86413218	     95.83781149	     13.12597776	     50.85494330	     81.59784280	     95.31555951	      1.11881048	     75.38617951	     58.15175812	     91.09732711	    -13.49448990	     83.70733017	     46.62549610	     96.32664020	    -14.14731722	     91.52346328	      5.30010933	      0.00093946	     -0.03120184	     -0.00488016	      0.01444129	     -0.01873689	     -0.00141433	      0.00134271	     -0.06891373	     -0.00681734	      0.01250984	     -0.18230462	      0.00003042	     -0.01008101	      0.00346933	     -0.00069433	      0.00031248	      0.00012499	      0.00062497	      0.00039998	      0.00119994	      0.00067497	     -0.00001107	     -0.00022890	     -0.00027468	      0.00243137	      0.00853039	      0.00593419	     -0.00795346	      0.01920368	     -0.01821465	      0.00243137	      0.00853039	      0.00593419	      0.00053573	      0.01780256	     -0.00935458	      0.00387189	      0.00474364	      0.01577875	      0.00000000	      0.00735591	      0.00000000	     -0.00696443	     -0.03218472	     -0.00606281	      0.02204804	     -0.00104388	     -0.01184000	     -0.00086540	      0.01450579	     -0.00593419	      0.00239016	      0.02093449	     -0.01730804	     -0.00581056	      0.01256894	     -0.00531604	     -0.01211563	      0.02653900	     -0.02971214	     -0.02274771	      0.01405248	     -0.00712926	     -0.01508272	      0.03065996	     -0.03712987
      0.03333333	     -0.31322146	      0.13266583	     -0.13266583	      0.31322146	     -0.06342097	      0.51254601	      0.23038590	     -0.23038590	     -0.51254601	      0.06342097	    101.81057981	     74.15796531	     -1.77692983	    -38.13782280	     31.43768222	     84.00472364	      0.32142023	     -0.61899983	      0.35165175	     -0.30949991	     32.20698558	    -23.73590348	     -6.48732576	     -0.86442156	     95.84777928	     13.12664670	     50.85854446	     81.59898369	     95.31449166	      1.11931792	     75.38466218	     58.15121093	     91.09759779	    -13.49351507	     83.70759566	     46.62553535	     96.31741685	    -14.14690078	     91.52154776	      5.29994134	      0.00093986	     -0.03120324	     -0.00488039	      0.01444160	     -0.01874020	     -0.00141494	      0.00134300	     -0.06891355	     -0.00681703	      0.01250941	     -0.18230474	      0.00003034	     -0.01008054	      0.00346913	     -0.00069423	      0.00031244	      0.00012498	      0.00062489	      0.00039993	      0.00119979	      0.00067488	     -0.00001107	     -0.00022890	     -0.00027468	      0.00243074	      0.00852817	      0.00593264	     -0.00795139	      0.01919869	     -0.01820992	      0.00243074	      0.00852817	      0.00593264	      0.00053559	      0.01779793	     -0.00935215	      0.00387115	      0.00474241	      0.01577687	      0.00000000	      0.00735207	      0.00000000	     -0.00696261	     -0.03217634	     -0.00605961	      0.02204261	     -0.00104332	     -0.01183121	     -0.00086518	      0.01450201	     -0.00593264	      0.00238954	      0.02092904	     -0.01730354	     -0.00580905	      0.01256567	     -0.00531466	     -0.01211248	      0.02653209	     -0.02970441	     -0.02274180	      0.01404883	     -0.00712741	     -0.01507880	      0.03065198	     -0.03712021
      0.06666667	     -0.31452897	      0.13321963	     -0.13321963	      0.31452897	     -0.06368572	      0.51468558	      0.23134762	     -0.23134762	     -0.51468558	      0.06368572	    101.35036188	     74.46752966	     -1.76889751	    -36.03374653	     31.23866576	     81.32725292	      0.33116174	     -0.61036917	      0.35966917	     -0.30518459	     31.86364573	    -23.70447147	     -7.19905121	     -0.84813833	     96.17882872	     13.10317876	     57.60142215	     79.66881503	     95.06594428	      1.05306711	     74.00749353	     56.21238988	     90.34126463	    -13.33124038	     85.04850221	     46.71232193	     92.28360462	    -14.10470792	     93.01685702	      5.35592859	      0.00093328	     -0.03118043	     -0.00487671	      0.01469797	     -0.01868614	     -0.00186095	      0.00154083	     -0.06878563	     -0.00660135	      0.01220458	     -0.18239288	     -0.00003669	     -0.00975925	      0.00332496	     -0.00061309	      0.00031250	      0.00012500	      0.00062501	      0.00040001	      0.00120002	      0.00067501	     -0.00001074	     -0.00023254	     -0.00027905	      0.00244088	      0.00856377	      0.00595741	     -0.00798458	      0.01927883	     -0.01828593	      0.00244088	      0.00856377	      0.00595741	      0.00053782	      0.01787222	     -0.00939119	      0.00388308	      0.00476221	      0.01580690	      0.00000000	      0.00741397	      0.00000000	     -0.00699168	     -0.03231066	     -0.00611103	      0.02130931	     -0.00096784	     -0.01064476	     -0.00086879	      0.01456255	     -0.00595741	      0.00239951	      0.02101641	     -0.01737577	     -0.00583329	      0.01261812	     -0.00533684	     -0.01216304	      0.02664285	     -0.02982841	     -0.02283673	      0.01410747	     -0.00715716	     -0.01514174	      0.03077994	     -0.03727517
      0.10000000	     -0.31442774	      0.13317675	     -0.13317675	      0.31442774	     -0.06366522	      0.51451993	      0.23127317	     -0.23127317	     -0.51451993	      0.06366522	    101.33757412	     74.44356244	     -1.76867432	    -35.98576259	     31.30109815	     80.96006739	      0.32661245	     -0.61344463	      0.35594463	     -0.30672232	     31.70157129	    -23.69769620	     -7.07957037	     -1.45485122	     96.06816181	     13.09524180	     59.91224853	     78.64482652	     94.93455510	      0.97483893	     73.53064587	     55.68510341	     89.80656358	    -13.26488648	     86.17201873	     44.74216438	     91.02120838	    -14.08796518	     93.08050499	      5.39694950	      0.00093534	     -0.03118758	     -0.00487787	      0.01473182	     -0.01870310	     -0.00192131	      0.00156796	     -0.06876808	     -0.00657177	      0.01216295	     -0.18240480	     -0.00004545	     -0.00971519	      0.00330536	     -0.00060227	      0.00031250	      0.00012500	      0.00062499	      0.00039999	      0.00119998	      0.00067499	     -0.00001058	     -0.00023421	     -0.00028105	      0.00244010	      0.00856102	      0.00595549	     -0.00798201	      0.01927263	     -0.01828005	      0.00244010	      0.00856102	      0.00595549	      0.00053765	      0.01786647	     -0.00938817	      0.00388216	      0.00476067	      0.01580458	      0.00000000	      0.00740917	      0.00000000	     -0.00698943	     -0.03230026	     -0.00610704	      0.02129188	     -0.00096613	     -0.01061822	     -0.00086851	      0.01455786	     -0.00595549	      0.00239874	      0.02100965	     -0.01737018	     -0.00583142	      0.01261406	     -0.00533513	     -0.01215913	      0.02663427	     -0.02981881	     -0.02282938	      0.01410293	     -0.00715486	     -0.01513687	      0.03077003	     -0.03726317
